<?xml version="1.0" standalone="no"?>
<!DOCTYPE svg PUBLIC "-//W3C//DTD SVG 1.1//EN" "http://www.w3.org/Graphics/SVG/1.1/DTD/svg11.dtd" >
<svg xmlns="http://www.w3.org/2000/svg">
<metadata>
This is a custom SVG font generated by IcoMoon.
<iconset grid="16"></iconset>
</metadata>
<defs>
<font id="broccolidry" horiz-adv-x="512" >
<font-face units-per-em="512" ascent="480" descent="-32" />
<missing-glyph horiz-adv-x="512" />
<glyph class="hidden" unicode="&#xf000;" d="M0,480L 512 -32L0 -32 z" horiz-adv-x="0" />
<glyph unicode="&#xe000;" d="M 256-32C 114.624-32,0,82.624,0,224C0,365.376, 114.624,480, 256,480c 141.376,0, 256-114.624, 256-256
	C 512,82.624, 397.376-32, 256-32z M 463.488,245.456c 0.416,0.208, 0.64,0.56, 0.8,1.12c 0.336-1.776, 1.152-3.344, 2.464-4.496
	c 0.032-0.16-0.048-0.128, 0.032-0.352c 0.128,0, 0.224,0.096, 0.336,0.096C 468.464,240.736, 470.128,240, 472,240c 2.88,0, 5.28,1.6, 6.688,3.856
	c 0.096-0.112, 0.256-0.256, 0.336-0.384c-0.016,0.256-0.048,0.512-0.080,0.768C 479.568,245.376, 480,246.624, 480,248
	c0,4.416-3.6,8-8,8c-2.816,0-5.152-1.536-6.592-3.712c-0.064,0.048,0,0.24-0.176,0.176
	c 0.208,0.608-0.352,2.16-1.232,3.824L 464,248 C 464,247.088, 463.744,246.272, 463.488,245.456z M 95.872,247.856c0,2.416-5.504,6.528-6.928,6.528
	c0,0.432-2.24,5.36-3.088,5.36c0,1.664-5.84,9.136-6.768,5.872c-0.608-2.112, 4.464-4.96, 4.464-7.408
	c 0.944,0, 4.912-7.52, 5.696-8.832c 8.672-14.656-6.48-4.64-6.48,1.568c-1.936,0.96-4.992,8.336-4.992,10.352
	c-1.136,0.912-4.496,8.032-4.224,8.032c0,4.672-2.576,6.912-7.696,6.912c-0.24,0.464-4.544,6.512-4.624,6.512
	c0,1.92-3.456,7.872-5.376,8.816c0,3.984-2.048,8.896-1.136,13.024c0,4.336-0.224,9.248-1.696,13.696C 39.664,289.6, 32,257.728, 32,224
	c0-96.656, 61.344-178.784, 147.136-210.192c 0.096,7.936, 0.688,17.44, 2.496,17.44c0,1.184, 1.008,6.144, 1.92,6.144c0,3.040, 0.368,6.704,0,10.352
	c-1.136,2.288, 1.504,5.216, 2.304,8.816c 4.432,2.224, 1.296,24.528, 4.64,24.528c0,11.152, 2.496,17.648, 0.752,27.984
	c 0.848,0-5.040,6.256-4.992,6.144c-5.648,0-9.6,9.056-9.6,13.024c-0.544,1.744-1.936,4.352-1.936,6.512
	c 1.296,0-8.080,13.696-8.080,13.424c-4.96,2.752, 0.272,6.592, 0.768,11.104c-4.304,1.424, 0.048,13.040, 1.92,13.040
	c 0.192,1.472, 0.96,2.48, 2.32,3.056c 0.96-3.824, 5.424,1.904, 1.92,1.904c0,2.528-0.288,7.936,0,9.2
	c0,3.904-3.456,11.552-6.144,3.456c-2.88,1.424-10.144,1.168-10.768,5.744c 0.448,2.256-4.144,6.864-5.76,7.664
	c 1.504,3.936-7.792,9.2-11.152,9.2c0,0.848-1.776,0.464-2.304,1.536c-3.424,0-4.208,4.608-8.080,4.608
	c-4.464,0-8.96,3.056-13.072,3.056c-1.376,2.736-7.76,1.664-9.232,4.608c-3.344,0-4.656,6.336-4.752,8.672
	C 102.16,237.904, 99.872,247.856, 95.872,247.856z M 419.968,376.256C 419.936,376.16, 420,376.224, 419.84,375.904c 0.24,0, 0.528-0.272, 0.8-0.384
	C 420.4,375.76, 420.192,376, 419.968,376.256z M 424.784,370.96c 0.56-1.088, 0.976-2.096, 0.848-2.72c 0.56-0.016, 0.832,0.288, 1.28,0.4
	C 426.224,369.424, 425.472,370.16, 424.784,370.96z M 438.688,298.064c 0.256,6.912-5.76,5.76-7.664,9.6c-1.984,0-2.704,1.536-5.392,1.536
	c-1.744,0.592-3.12,0.176-4.128-1.248c-4.112-1.568-1.632,2-4.72,2c 0.144,3.952-1.424,5.040-5.776,4.608
	c-2.496-5.632-6.336-9.008-5.76-15.344c 1.84-0.416, 1.52-0.832, 1.152-2.672c 2.448-0.128, 17.296,0.768, 17.296,2.304
	c 0.512,0, 3.088-5.296, 3.088-0.768c 2.064,0, 3.152-4.848, 8.080-3.44C 434.864,293.648, 443.088,298.064, 438.688,298.064z M 439.472,216.416
	c 0.288,1.408-0.704,2.032-1.536,3.456c 2.192,0-6.928,16.912-6.928,19.552c-1.392,0.688-3.168,5.52-3.488,7.28
	c-1.872,1.248-3.808,5.344-4.608,7.664c-1.904,1.264-6.544,6.928-7.296,9.584c 2.752-0.304, 6.912-0.864, 6.912,2.688
	c-1.856,0-2.128,2.288-0.368,2.288c-0.576,2.352, 1.248,4.048, 1.648,5.888c 0.48,2.224, 1.424,5.648, 1.424,8.304
	c-2.64,0-3.28-0.448-5.376-1.152c0-1.552-4.688,0.384-5.376,0.384c-1.008,2.016-8.32-2.624-10.368,1.536
	c-3.312,2.992-2.416,5.296-3.488,9.52c-0.544,2.144-3.472,2.272-5.248,2.624c-5.008,0.976-1.392-5.968-1.664-7.552
	c 3.072,0-1.936-3.808-1.936-5.744c-5.184,1.12-3.456,6.896-6.512,8.432c-0.912,1.536-0.192,2.688-2.32,2.688
	c0,2.048, 1.088,5.76-1.152,6.512c0,0.992-4.352,1.392-4.992,2.688c-2.752,0-9.152,10.4-11.12,6.896
	c-1.232-2.24, 1.040-2.784, 1.504-4.608c 3.984,0.784, 3.6-6.56, 8.464-5.744c0-1.024, 0.128-2.064, 0.368-3.072
	c 3.6,0.848, 3.184-2.672, 4.992-2.672c-1.312-1.744-5.472,2.784-4.336-1.024c 0.656-2.208, 0.288-4.096-2.576-6.256
	c0,2.384-0.192,8.816-2.688,8.816c-1.696,3.392-6.736,2.576-8.864,5.744c-1.728,0-2.4,5.376-5.376,5.744
	c-0.56-0.784-2.656-1.536-3.472-1.536c-1.616-3.248-10.752-0.336-10.752-0.768c-0.144-0.032-5.12-12.192-5.408-13.792
	c-0.56-3.44-3.328-3.504-4.16-6.768c-0.416-1.632-10.448-0.864-10.448-2.064c-4.336,1.44-8.080,4.48-8.080,9.2
	c-0.352,0, 0.816,12.048, 1.552,13.808c 0.88-0.24, 1.056-0.544, 1.552-1.536c 2.656,0.992, 8.848-0.656, 8.848,2.304
	c 2.576-0.064, 3.344-1.088, 2.304-3.072c 2.4-0.448, 6.544-1.056, 6.544,2.304c-1.408,0-1.552,0.128-1.552,1.536
	c 4.608,4.784-3.456,9.104-3.456,11.488c-1.632,0.544-4.96,4.080-2.592,2.752c 2-1.104, 9.312-3.392, 6.432,1.472
	c 0.192,0.064, 0.32,0.192, 0.368,0.368c 0.816-0.576, 4.256-4.112, 4.256-0.768c 0.944,0, 4.592,2.304, 1.536,2.304
	c 0.288,1.728, 0.224,3.168, 0.368,4.224c 4.88-2.624, 2.16,1.792, 4.624,3.44c0-3.184, 2.624,1.536, 4.224,1.536
	c 1.904,2.832, 6.256,0.64, 7.312,3.84c-2.352,0.768-1.92,6.656-1.92,8.8c 2.832-0.464, 5.984,3.824, 6.416,0.88
	c 0.16-1.136, 0.304-4.272, 0.88-4.704c 4.208-2.208, 3.088,1.264, 3.088,3.44c-1.408,0-3.28,4.928-3.472,7.296
	c-1.152-0.16-3.008-0.64-3.472-1.52c-4.192,0-7.040,1.52-10.368,1.52c-0.256,0.512-4.256,4.992-3.84,4.992
	c-2.336,4.016, 2.336,2.848, 3.072,3.040c0,3.808, 15.856,3.136, 16.544,9.216c-5.216,0, 5.376,8.832, 5.376,8.8
	c 3.536,3.024, 5.408,5.632, 9.808,5.968c 1.856,0.128, 22.496,5.824, 22.496,3.248c 0.832-0.032, 3.584-0.064, 6.432-0.16
	C 368.256,425.12, 314.864,448, 256,448c-57.008,0-108.896-21.472-148.432-56.56c 0.352-0.8, 0.624-1.568, 0.608-2.112
	C 110.272,389.472, 113.28,390.816, 113.952,388.16C 112.912,388.176, 111.872,388.304, 110.88,388.56c 0.736-5.936-2.592-2.304-5.376-2.304
	c0,0.144-1.232,0.64-2.544,0.992c-0.848-0.8-1.744-1.552-2.592-2.352C 100.464,384.64, 100.32,384.624, 100.48,384.336
	c 0.896,0, 0.432-1.392, 2.992-2.24C 106.432,381.088, 109.68,380.528, 112.8,380.032c 2.528-0.4, 3.984,0.464, 6.144,0.464
	c0,0.32, 5.28,2.672, 1.552,2.672c 0.512,2.112-0.432,2.64-2.704,2.672c 0.192,2.24, 5.52,0.768, 7.696,0.768
	c 1.664,2.8, 0.048,2.464, 1.52,5.008c 1.76,3.12, 3.856,0.416, 5.008,3.408C 133.76,394.384, 135.312,393.44, 135.872,391.232
	C 137.264,390.080, 144.336,379.648, 144.336,387.024C 146.864,386.176, 148.128,381.44, 148.176,378.96c 4.592,0.672, 4.992,4.112, 4.992,7.68
	c 1.056,0-0.384,1.712-0.384,2.304C 154.496,389.568, 156.64,387.312, 156.64,389.696c 0.736,0, 0.768-0.736, 0.768-1.536
	c 2.384-0.464, 3.92,0.272, 5.376-0.24c 1.008-0.352, 0.496-5.584, 0.032-7.424c-0.576-2.336-5.040-2.368-5.040-3.456
	c-5.056-3.776, 5.968-5.744, 7.696-8.048c-1.040,0-4.992,0.512-4.992,0.752c-2.496,0-8.544-2.64-10.768-0.752
	c 3.104,0, 4.144,3.728, 4.624,7.28c-2.864,1.072-6.24-0.688-7.040-3.536C 145.952,368.032, 142.832,372.928, 141.264,369.76
	C 140.656,369.568, 135.104,366.992, 135.104,367.856c-6.24-0.88-4.608-6.176-4.608-11.888C 132.976,354.48, 138.016,350.24, 137.792,347.92
	C 143.392,346.928, 145.44,346.336, 150.48,345.616c 0.416-0.816, 2.080-1.584, 3.088-1.904c0-3.296, 2.992-2.704, 5.76-2.704
	c0,4.208, 4.896-3.504, 5.376-4.976c-0.672,0, 1.152-4.304, 1.536-5.76c-0.768,0.272-1.008,0-0.768-0.768
	c 2.432-0.896, 6.288-0.64, 6.928,1.92c-2.336,0-1.552,2.672-1.552,4.224c-2.4,1.6-2.032,4.688, 0.384,5.36
	c0-2.176, 7.92,1.36, 3.456,3.056c 1.088,2.448, 1.824,6.208, 0.048,8.336c-1.136,1.344-2.56,0-3.12,2.016
	c 3.024,0.752, 0.8,6.512, 0.768,9.2c 0.96,0.368, 3.456-0.608, 3.456,0c 2.96,0, 7.888-3.744, 9.616,0.784
	c 4.944-2.256, 1.008-4.4, 6.16-2.688c0-1.216, 5.808-6.896, 6.544-6.896c0-0.272-0.144-1.92, 1.136-1.92
	c0-1.232-0.768,0.704-0.768-1.52c 0.72-0.080, 4.624-0.784, 4.624,0.752c 2.48,0, 4.224,3.040, 4.224,5.36
	c 1.552,1.008, 4.272-8.432, 6.144-8.432c 1.376-2.144, 5.776-5.264, 5.776-7.28c 0.928-0.944, 1.904-0.688, 1.904-3.456
	c 1.168,0, 3.472,4.592, 3.472,0.384c 1.088,0, 4.256-2.336, 4.624-4.208c-2.768,0-0.144-2.688-1.568-2.688
	c0-2.656-5.936-0.544-7.28-0.384c-1.84-8.24-12.944-2.32-19.664-4.448c-3.536-1.12-10.368-8.912-10.736-12.8
	c 4.288-0.048, 6.176,3.712, 10,4.992c 3.12,0, 3.728,1.888, 6.544,2.672c0-0.784, 0.768-0.368, 0.768-1.152
	c-5.472,0-2.144-3.536-0.544-6.112c 0.992-1.6, 2.128-2.368, 3.392-2.864c-0.528-0.928-0.96-1.856-1.296-2.896
	c0-0.016-0.016,0-0.016-0.016c-1.040-0.352-3.072-1.104-3.472-1.92c-6.192-0.688-3.136-0.272-2.72,1.216
	c 0.224-0.528, 2.448-0.048, 2.352-0.064c-0.368,1.856-0.928,1.6-0.384,2.672c-3.36,0-4.992-1.536-7.696-1.536
	c-0.448-0.912-2.8-3.072-3.84-3.072c-0.784-2.368-2.56-6.672-4.624-8.048c0,0.624-5.472-3.44-4.992-3.44
	c-1.216-1.968-2.544-1.904-3.088-4.976c-0.368-0.192-1.92-5.328-1.92-6.128c-2.384-1.584-3.264-8.048-7.312-8.048
	c-2.48-4.928-6.928-4.272-6.928-10.736c 1.504-1.536, 2.080-8.336, 2.544-10.512c 0.576-2.704, 1.472-5.52-2.144-5.584
	c-0.256,0.4-2.784,4.224-2.32,4.224c0,1.584-1.936,6.656-3.072,8.24c-1.52,2.128-4.336-0.336-6.544,0.592
	c-0.944,1.888-7.328,2.304-9.6,2.304c 0.368-1.424, 1.408-1.872, 1.536-3.456c-1.888-0.768-2.976-1.632-4.928-1.36
	c-3.344,0.464-2.944,3.072-6.624,2.704c-5.888-0.592-10-5.472-10-11.312c-0.656,0-0.656-11.504,0-11.504
	c0-3.248, 2.688-5.6, 2.688-8.048c 2.608,0, 5.536-5.744, 8.080-5.744c 0.288-2.032-1.28-2.352, 3.072-2.32
	c0,0.224, 2.368,1.488, 2.688,3.072c-3.008,0.736-0.016,4.608, 1.92,5.36c0-2.736, 3.84,0.912, 3.84,1.152
	c 0.432,0.176, 4.24,1.536, 4.24,1.536c0,3.104, 2.896-0.304, 0.768-1.536c-2.080,0-1.92-3.456-3.072-3.456
	c-0.496-2.464-1.472-4.608-2.048-7.008c-0.736-2.96, 1.664-3.264, 0.896-6.032c 3.056-0.576, 6.144-0.016, 9.232,0
	c 0.016,0.544-0.096,1.072-0.384,1.536c 4.464,0, 0.384-8.432, 3.088-8.432c0-3.184, 1.536-5.664, 1.536-7.664
	c 2.080-1.376, 3.328-3.216, 2.688-5.744c 2.56-0.336, 8.064-0.992, 8.064,2.304c 3.888,0, 4.16-2.64, 3.872-5.36
	c 7.744,0, 2.896,7.664, 6.128,7.664c 0.304,1.264, 0.832,1.488, 1.584,0.656c 1.584-0.848, 2.784,1.584, 4.048,2.352
	c 0.4,0.272, 1.808,1.088, 2.064,1.088c 1.088-0.656, 1.184-0.464, 1.664-1.2c 2.112,0.016, 4.24,1.2, 6.048,2.448
	c 2.768-0.336, 1.872-6.288, 7.056-6.656c 2.080-0.144, 6.896-0.72, 8.688,0.512c 0.448,0.304, 2.096-1.040, 2.272-1.616
	c 1.728,0, 1.6-1.504, 2.336-1.472c 0.176-0.336, 0.432-0.464, 0.784-0.368c 0.224-0.656, 1.6-0.848, 2.32-2.672
	c0-1.664, 3.456-1.952, 3.456-3.056c 2.48-1.248-0.848-1.584, 2.96-2.736c 2.096-0.656, 4.032-1.712, 6.288-1.872
	c 0.72,2.736, 3.056-0.368, 4.24-0.368c 0.608-1.248, 0.928-0.304, 1.52-1.536c 3.568-2.976, 1.216-1.824, 2.688-4.992
	c 1.712-1.12, 2.256-5.024, 2.72-7.28c-1.376,0-0.4-5.264-0.4-5.76c-1.664,0, 4.256-3.152, 4.256,0.784
	c 2.432-0.4, 4.032-3.056, 5.76-3.056c-1.008-2.32, 2.688-4.064, 2.688-0.4c 3.648-0.368, 2.672-5.808, 2.32-7.664
	c 2.704,0, 3.488,1.504, 5.792,1.792C 266.064,158.848, 268.848,160, 272,160c 8.848,0, 16-7.152, 16-16c0-7.968-5.936-14.288-13.568-15.504
	c-1.024-1.168-1.952-2.176-2.016-2.176c0-0.768-0.176-8.416-0.4-8.416c0-1.536-1.168-9.968-2.304-9.968
	c0-4.336-2.832-5.12-3.84-9.2c-2.336-1.728-8.656-4.608-9.632-6.512c-1.808,0-3.152-1.536-4.992-1.536
	c-0.256-0.528-4.176-4.224-3.472-4.224c-0.288-2.72, 0.208-9.12-1.264-10.912c-0.992-1.184-2.416-1.056-1.792-2.912
	c-2.16,0, 0.128-1.536-3.28-1.536c-2.144,0-5.968-3.056-6.080-5.648c-0.144-3.168-0.992-5.456-3.712-7.392
	c0-1.088-4.992-1.408-4.992-4.224c 0.464,0,0-5.216,0-5.744c-1.488,0.048-5.136-1.44-5.76-2.672c-5.024,0-4.416-0.512-7.68-2.688
	c0-0.672-0.464-3.056-1.152-3.056c0-3.888-2.768-0.352-5.008-2.32c 0.88,0, 2-3.824, 1.536-3.824
	c0-3.376-2.096-3.664-4.224-6.144c-1.008-0.672-1.968-3.456-2.688-3.456c0-2.272-1.136-4.336-1.136-6.512
	c 0.48,0, 0.032-0.976, 0.368-1.888c 1.072,0.304, 1.104,1.52, 1.536,1.52c0,1.92, 3.056-1.136, 1.152-1.136
	c-1.584-2.4-3.296-2.448-4.24-5.76c-0.96,0-1.792-0.928-2.496-2.016C 215.712,3.008, 235.488,0, 256,0
	c 78.784,0, 147.936,40.768, 187.872,102.288c 0.24,5.664, 1.12,11.072, 1.744,12.944c 1.568-1.152, 2.736-3.312, 3.84,0
	c-2.768,0.544-2.096,1.504-1.152,3.824c 1.056-0.64, 3.184-1.424, 4.912-1.312c 0.528,0.992, 0.944,2.048, 1.472,3.040
	c-1.568,1.216, 0.592,4.368, 1.344,2.832c 0.4,0.768, 0.752,1.568, 1.12,2.336c-0.176,0.048-0.128-0.064-0.384,0.016
	c0,1.392, 0.256,1.216, 1.168,1.92c 0.016-0.144,0-0.144, 0.032-0.272C 471.936,156.848, 480,189.44, 480,224c0,1.136-0.16,2.224-0.176,3.36
	c-0.416-1.568-1.2-3.264-2.304-3.648c0-1.008-11.44-5.984-10.752-8.048c-2.016,0-9.088-2.016-10.384-4.592
	c-1.424,0-7.168-2.032-7.696-3.072C 441.552,207.984, 442.912,216.416, 439.472,216.416z M 472,304l-8.496,0 
	c-0.064,0.080-0.128,0.096-0.192,0.208c-0.432,0-2.24,4.064-1.536,4.992c 0.688,0, 1.008-0.064, 1.376-0.096
	c-0.72,1.76-1.504,3.488-2.288,5.232c-1.728-1.184-3.248-2.688-5.632-2.832c0-0.656-3.408-7.28,0-7.28
	c0-0.128, 0.064-0.224, 0.096-0.336C 451.248,303.504, 448,300.176, 448,296c0-4.416, 3.584-8, 8-8l 3.152,0 
	c 0.192-1.456, 0.976-2.72, 3.776-3.344c 0.88-3.696, 7.472-5.008, 8.464-1.136c-2.784,0-1.872,2.672-1.632,4.48L 472,288 
	c 4.4,0, 8,3.584, 8,8C 480,300.416, 476.4,304, 472,304z M 448.688,199.968c 0.56-0.032, 4.256,0.064, 4.256,0.72
	c 3.344,0, 7.872,0.464, 11.152,1.552c0-4.96-4.176-7.728-3.472-12.656c-2.768,0-1.552-2.848-1.552-3.824
	c-1.792-1.104-2.064-3.12-4.224-4.224c0-2.224-4.992-5.904-6.464-7.808c-1.664-2.128-6.672-5.824-7.328-8.528
	c 0.176,0.64-9.152-9.712-6.976-9.712c0-1.936-2.624-17.248, 0.768-17.248c0-1.344, 2.896-14.192, 1.136-14.192
	c0-4.128-2.688-6.656-2.688-9.952c-1.312-0.896-3.184-1.392-3.84-2.704c-2.352,0-3.488-4.992-4.608-4.992
	c0-5.328-1.552-9.28-1.552-15.328c 0.432,0-3.072-8.624-3.072-9.184c-2.832-1.904-10-8.736-10-12.288c0,0-4.992-7.008-5.76-8.048
	c-1.504,0-13.088-2.176-13.088-3.072c-2.464,0-8.832-1.936-10.368,0.384c0,2.432-1.328,5.52-1.536,8.832
	c-1.184,0-1.376,4.976-2.688,4.976c0,1.056-7.344,15.728-6.16,15.728c0,1.52-1.312,6.512-1.536,6.512c0,5.28-3.856,9.68-3.856,14.56
	c-1.136,0-3.488,10.72-2.304,10.72c0,5.632, 1.968,9.312, 2.784,15.568c 0.912,6.864-0.432,11.040-1.632,15.888
	c-0.656,0-2.864,3.664-3.088,4.592c-3.088,2.048-4.224,6.112-4.224,9.952c 2.016,2.304, 2.816,10.96, 2.32,13.808
	c-3.888,1.84-5.44,1.152-9.632,1.152c-2.48,4.976-19.136,1.904-23.856,1.904c0-2.72-11.6,0.528-12.688,2.688
	c-2.832,0-8.448,6.016-8.448,8.816c-3.104,2.064-8.064,12.336-8.064,15.712c-2.688,1.344-1.872,6.528-0.4,6.528
	c 0.368,1.44-0.944,5.984-1.568,8.144c-0.464,1.616, 1.568,3.36, 1.568,5.28c0,5.344, 0.128,7.808, 3.12,13.52
	c 0.944,1.792, 2.144,3.472, 3.024,5.712c 1.6,4.016, 2.080,0.192, 4.24,3.776c 2.064,1.024, 3.264,4.448, 5.392,6.128
	c 0.928,1.232, 0.96,1.744,0,2.688c 0.416,0, 2.688,5.904, 2.688,7.264c 3.008,4.176, 0.88,2.272, 3.84,1.92
	c 1.088,1.184, 2.896,4.224, 4.608,4.224c 0.752,1.488, 2.64,2.304, 4.24,2.304c0-2.304, 6.272,0.752, 6.928,0.752
	c 1.072,2.16, 7.984,4.608, 9.616,4.608c0,2.624, 13.632-0.736, 15.776-0.384c0,0.384,0,0.768,0,1.152c 2.912-0.688, 8.224-12.368, 7.68-14.96
	c 2.24,0, 4.32,0.368, 5.776,0c0-2.48, 4.672-3.088, 6.8-3.2c 2.96-0.144, 11.648,0.304, 11.648,4.352c 2.288,0, 4.32-1.6, 3.872-4.208
	c 2.592-0.288, 18-0.592, 16.912-3.824c 2.256,0, 2.832-3.856, 4.992-3.856c-0.432-2.656, 2.688-9.584, 4.992-9.584
	c0-2.304, 1.44-6.544, 3.472-8.032c 1.088-3.296, 4.688-10.24, 8.064-12.272c-1.44-2.72, 2.192-4.96, 3.088-7.664
	c-0.208,0, 0.784-4.016, 1.904-4.608c0-2.72, 5.728-13.808, 8.864-13.808C 447.744,200.88, 444.592,200.272, 448.688,199.968z M 365.632,285.808
	c 0.592,2.288, 1.936,0.512, 3.184,0.096c 2.96-0.96, 1.936,0.048, 4.128,1.040C 372.944,280.704, 369.36,285.44, 365.632,285.808z
	 M 357.536,297.312c 1.568,0, 2-7.040-2.304-5.744c0,1.744-1.104,4.976, 1.168,4.976C 357.056,293.824, 357.536,294.928, 357.536,297.312z
	 M 355.632,301.904c 1.776-0.768, 2.56-0.512, 2.304,0.768c 2.336-0.768-0.304-2.432-0.768-4.224
	C 355.968,299.632, 356.336,300.048, 355.632,301.904z M 314.464,336.032c-3.776,0.976, 3.888,2.096, 4.224,3.056c-1.28,0-2.16,1.328-1.664,2.448
	c 0.576,1.328, 1.52-1.584, 2.832-0.928c 1.552,0.16, 4.608,2.48, 3.040-2c-1.6-4.544-3.056-7.872-8.816-7.952
	C 312.016,332.736, 314,333.824, 314.464,336.032z M 328.704,351.744c 3.104,0, 0.384-2.304-0.304-2.304c 0.528-0.208-0.096-2.064-0.096-2.672
	c 2.88,0.032, 2.928,1.792, 4.992,2.304c-0.432-2.576-3.312-3.072-0.496-5.28c 1.488-1.168, 3.008-2.544, 2.416-4.32
	c 3.664,0, 4.208-3.52, 3.456-7.664c 2.032,0, 1.936-0.096, 1.936,1.936c 1.968-0.544, 1.824-2.32,0-2.32
	c-1.824-3.6-6.608-3.44-10-3.44c-0.032,2.784-0.56,2.96-3.136,2.176c-3.52-1.072-0.768,2.8-0.704,4.72
	c 0.384,0, 7.984-0.352, 3.456,1.152c-0.24,4.128-1.168,5.36-4.992,5.36c0,2.816-0.992,2.608-1.456,5.696
	C 323.12,351.648, 327.344,346.768, 328.704,351.744z M 327.536,326.832c0-0.944-1.92-1.696-2.304-0.368c 0.368-0.128, 0.512,0, 0.368,0.368
	C 326.256,326.832, 326.912,326.832, 327.536,326.832z M 296,368l-16,0 C 275.584,368, 272,371.584, 272,376C 272,380.416, 275.584,384, 280,384l 16,0 
	C 300.416,384, 304,380.416, 304,376C 304,371.584, 300.416,368, 296,368z M 202.784,226.4c 0.896,0, 1.936-0.352, 1.936-1.152
	C 203.552,225.248, 202.048,224.144, 202.784,226.4z M 188.192,225.616c-0.64-1.216-5.824-1.008-6.544,0.4c 1.92,0, 3.408-0.784, 5.376,0
	c0,1.056-0.88,1.904-1.536,3.056c 2.096,0, 4.448-1.6, 7.312-1.536c0,1.776-0.784-0.384,0,1.92c 1.2-0.304, 4.096-3.056, 4.224-4.208
	C 192.816,225.696, 192.624,225.616, 188.192,225.616z M 171.264,234.816c-1.968,0-5.76,1.712-6.928,3.456c 1.904-0.080, 3.792-0.864, 4.992,1.152
	c 4.88-0.496, 5.312-3.856, 9.232-3.856c 0.736-1.296, 4.928-4.272, 0.88-4.656C 176.384,230.624, 172.544,232.288, 171.264,234.816z
	 M 174.336,224.080c-1.424,0-3.776-0.624-2.688,2.32C 173.536,226.144, 174.432,225.36, 174.336,224.080z M 177.024,224.464
	c-0.768-0.128-1.536-0.256-2.304-0.384C 174.944,225.856, 176.624,227.84, 177.024,224.464z M 191.248,207.616
	c-0.304-1.072-0.256-1.136-1.52-1.136c 0.128,0.496, 0.24,0.992, 0.368,1.52C 190.496,207.872, 190.864,207.744, 191.248,207.616z
	 M 156.64,239.424c 0.368-0.128, 0.768-0.272, 1.152-0.384c 0.496-1.904, 1.536-0.96, 2.688-0.384C 160.48,236.432, 155.328,235.792, 156.64,239.424z" data-tags="earth, globe" />
<glyph unicode="&#xf31a;" d="M 217.5,246.5q-9.5-9 -9.5-22.25t 9.5-22.75l 225.5-224q 9.5-9.5 23-9.5t 23,9.5l 13.5,13.5q 9.5,9 9.5,22.25t-9.5,22.75l-189.5,188l 189.5,188q 9.5,9.5 9.5,22.75t-9.5,22.75l-13.5,13q-9.5,9.5 -23,9.5t-23-9.5zM 294.5-9q 9.5,9 9.5,22.25t-9.5,22.75l-189.5,188l 189.5,188q 9.5,9.5 9.5,22.75t-9.5,22.75l-13.5,13
q-9.5,9.5 -22.75,9.5t-22.75-9.5l-226-224q-9.5-9 -9.5-22.25t 9.5-22.75l 226-224q 9.5-9.5 22.75-9.5t 22.75,9.5z" data-tags="fastleft" />
<glyph unicode="&#xf31b;" d="M 294.5,246.5q 9.5-9 9.5-22.25t-9.5-22.75l-225.5-224q-9.5-9.5 -23-9.5t-23,9.5l-13.5,13.5q-9.5,9 -9.5,22.25t 9.5,22.75l 189.5,188l-189.5,188q-9.5,9.5 -9.5,22.75t 9.5,22.75l 13.5,13q 9.5,9.5 23,9.5t 23-9.5zM 217.5-9q-9.5,9 -9.5,22.25t 9.5,22.75l 189.5,188l-189.5,188q-9.5,9.5 -9.5,22.75t 9.5,22.75l 13.5,13
q 9.5,9.5 22.75,9.5t 22.75-9.5l 226-224q 9.5-9 9.5-22.25t-9.5-22.75l-226-224q-9.5-9.5 -22.75-9.5t-22.75,9.5z" data-tags="fastright" />
<glyph unicode="&#xf31c;" d="M 233.5,262.5q 9,9.5 22.5,9.5t 22.5-9.5l 224-225.5q 9.5-9.5 9.5-23t-9.5-23l-13-13.5q-9.5-9.5 -22.75-9.5t-22.75,9.5l-188,189.5l-188-189.5q-9.5-9.5 -22.75-9.5t-22.75,9.5l-13,13.5q-9.5,9.5 -9.5,23t 9.5,23zM 489.5,185q-9.5-9.5 -22.75-9.5t-22.75,9.5l-188,190l-188-190q-9.5-9.5 -22.75-9.5t-22.75,9.5
l-13,14q-9.5,9.5 -9.5,22.75t 9.5,22.75l 224,226q 9,9.5 22.5,9.5t 22.5-9.5l 224-226q 9.5-9.5 9.5-22.75t-9.5-22.75z" data-tags="fastup" />
<glyph unicode="&#xf31d;" d="M 278.5,185q-9-9 -22.5-9t-22.5,9l-224,226q-9.5,9.5 -9.5,23t 9.5,22.5l 13,14q 9.5,9.5 22.75,9.5t 22.75-9.5l 188-189.5l 188,189.5q 9.5,9.5 22.75,9.5t 22.75-9.5l 13-14q 9.5-9 9.5-22.5t-9.5-23zM 22.5,262.5q 9.5,9.5 22.75,9.5t 22.75-9.5l 188-189.5l 188,189.5q 9.5,9.5 22.75,9.5t 22.75-9.5l 13-13.5
q 9.5-9.5 9.5-22.75t-9.5-22.75l-224-226q-9-9.5 -22.5-9.5t-22.5,9.5l-224,226q-9.5,9.5 -9.5,22.75t 9.5,22.75z" data-tags="fastdown" />
<glyph unicode="&#xe001;" d="M 448,480L0,480 l0-512 l 512,0 L 512,416 L 448,480z M 256,416l 64,0 l0-128 l-64,0 L 256,416 z M 448,32L 64,32 L 64,416 l 32,0 l0-160 l 288,0 L 384,416 l 37.489,0 L 448,389.491L 448,32 z" data-tags="disk, save, floppy" />
<glyph unicode="&#x21;" d="M0,224q0,69.632 34.304,128.512t 93.184,93.184t 128.512,34.304t 128.512-34.304t 93.184-93.184t 34.304-128.512t-34.304-128.512t-93.184-93.184t-128.512-34.304t-128.512,34.304t-93.184,93.184t-34.304,128.512zM 216.064,303.872l 15.872-159.744l 48.128,0 l 15.872,159.744l0,96.256 l-79.872,0 l0-96.256 zM 224.256,47.872l 64,0 l0,64 l-64,0 l0-64 z" />
<glyph unicode="&#x2b;" d="M0,160l0,128 l 192,0 l0,192 l 128,0 l0-192 l 192,0 l0-128 l-192,0 l0-192 l-128,0 l0,192 l-192,0 z" />
<glyph unicode="&#x2d;" d="M0,160l 512,0 l0,128 l-512,0 l0-128 z" />
<glyph unicode="&#x3f;" d="M0,224q0,69.632 34.304,128.512t 93.184,93.184t 128.512,34.304t 128.512-34.304t 93.184-93.184t 34.304-128.512t-34.304-128.512t-93.184-93.184t-128.512-34.304t-128.512,34.304t-93.184,93.184t-34.304,128.512zM 134.144,284.416l 69.632,0 q0,19.456 11.776,38.4q 12.288,18.432 39.936,18.432q 28.672,0 38.912-14.848q 10.752-15.36 10.752-33.28q0-15.872 -9.216-29.696q-5.12-7.68 -14.336-14.336l-17.408-13.312q-26.624-20.992 -32.256-36.352q-7.168-17.408 -7.68-55.296l 64,0  q0,13.824 4.608,27.648q 4.608,14.336 18.432,25.088l 17.408,13.824q 25.6,19.968 34.816,33.28q 15.872,20.992 15.872,52.736q0,51.2 -36.352,77.312q-35.84,26.112 -90.624,26.112q-41.472,0 -70.144-18.432q-45.056-28.16 -48.128-97.28zM 224.256,47.872l 64,0 l0,64 l-64,0 l0-64 z" />
<glyph unicode="&#x41;" d="M 22.016,148.224q-7.168-21.504 -7.168-41.984q0-50.688 43.008-94.72q 43.008-43.52 94.208-43.52q 20.48,0 40.96,7.168q 35.328,11.776 59.904,36.352l 236.544,240.128q 5.632,5.632 5.632,14.080t-5.632,14.080t-14.080,5.632t-14.080-5.632l-236.544-240.128q-4.608-4.608 -11.008-9.728t-21.76-12.8q-14.848-7.168 -30.208-9.216q-3.072-0.512 -7.168-0.512q-12.8-0.512 -29.184,5.632q-20.992,7.168 -39.936,26.624q-18.944,18.432 -26.112,39.936q-5.632,16.896 -5.632,30.72 q 0.512,3.072 0.512,6.144q 2.048,15.36 9.472,31.488t 12.288,22.016t 9.472,11.008l 236.544,240.128l 1.536,1.024q 1.536,1.024 3.84,3.072t 5.632,4.096t 7.68,4.096t 8.448,3.584q 8.704,3.072 16.896,3.072q 20.992,0 39.424-18.944q 13.824-13.824 17.92-28.672q 2.048-7.168 2.048-13.312q0-7.168 -2.56-13.312q-4.608-11.776 -8.704-18.432t-8.704-11.264l-222.208-225.792q-7.168-7.168 -14.080-7.168t-14.080,7.168q-6.656,6.656 -6.656,13.568t 6.656,14.592l 153.088,155.136q 5.632,6.144 5.632,14.336t-5.632,14.336 q-5.632,5.632 -13.824,5.632t-13.824-5.632l-153.088-155.648q-9.728-9.216 -14.848-22.528q-3.584-8.704 -3.072-18.944q0-5.632 1.024-11.264q 3.072-17.408 17.408-31.744q 13.312-13.824 30.72-16.896q 6.144-1.024 11.776-1.024q 10.24,0 18.432,3.072q 12.8,5.12 22.016,14.848l 222.72,225.792q 10.24,10.24 17.92,24.832t 11.776,33.536q 1.536,6.656 1.536,14.336q0,12.288 -4.608,26.624q-7.168,22.528 -26.624,41.984q-31.232,31.232 -66.56,31.232q-14.848,0 -30.208-5.632q-25.6-8.192 -42.496-25.6 l-236.544-240.128q-23.552-23.552 -35.84-60.928z" />
<glyph unicode="&#x42;" d="M0,235.264q0,57.856 34.304,106.752t 93.184,77.568t 128.512,28.672q 69.12,0 128.256-28.416t 93.44-77.312t 34.304-106.24q0-52.224 -26.624-95.744t-71.168-72.192l0-3.584 q-0.512-10.752 6.656-32.256q 8.192-25.088 17.92-45.056l 9.216-19.456q-106.496,30.72 -141.824,58.88q-29.696-3.584 -50.176-3.584q-69.12,0 -128.256,28.416t-93.44,77.312t-34.304,106.24z" />
<glyph unicode="&#x43;" d="M0-32l 128,0 l0,223.744 l-128,0 l0-223.744 zM 192-32l 128,0 l0,512 l-128,0 l0-512 zM 384-32l 128,0 l0,351.744 l-128,0 l0-351.744 z" />
<glyph unicode="&#x45;" d="M0,225.024q 2.56,3.584 6.912,9.216t 18.944,22.272t 30.464,31.744t 39.68,33.536t 47.616,31.744t 53.76,22.528t 58.624,9.216q 39.424,0 80.384-16.384t 71.168-40.192t 54.784-47.36t 37.376-39.936l 12.288-16.384q-4.608-6.656 -13.312-17.408t-36.096-38.144t-55.808-48.64t-69.888-38.4t-80.896-17.152q-101.376,0 -205.824,102.4q-31.232,31.232 -50.176,57.344zM 143.872,225.024q0-46.080 32.768-78.848t 79.36-32.768t 79.36,32.768t 32.768,78.848 q0,46.592 -32.768,79.36t-79.36,32.768t-79.36-32.768t-32.768-79.36zM 207.872,225.024q0,19.968 14.080,34.048t 34.048,14.080t 34.048-14.080t 14.080-34.048q0-19.456 -14.080-33.536t-34.048-14.080t-34.048,14.080t-14.080,33.536z" />
<glyph unicode="&#x4c;" d="M 64-32l0,256 l 32.256,0 l0,95.744 q0,66.048 46.848,113.152t 112.896,47.104t 113.152-47.104t 47.104-113.152l0-95.744 l 31.744,0 l0-256 l-384,0 zM 181.248,224l 149.504,0 l0,95.744 q0,31.232 -22.016,52.992t-52.736,21.76t-52.736-21.76t-22.016-52.992l0-95.744 z" />
<glyph unicode="&#x50;" d="M0,224q0-69.632 34.304-128.512t 93.184-93.184t 128.512-34.304t 128.512,34.304t 93.184,93.184t 34.304,128.512q0,107.52 -76.8,182.784q-11.776,11.776 -28.16,11.776l-0.512,0 q-16.896,0 -28.16-12.288q-11.776-11.776 -11.776-27.648q0-16.896 12.288-29.184q 53.248-51.712 53.248-125.44q0-72.704 -51.712-124.416t-124.416-51.712t-124.416,51.712t-51.712,124.416q0,73.728 53.248,125.44q 12.288,12.288 12.288,29.184q0,16.384 -11.776,27.648q-11.264,12.288 -28.16,12.288 l-0.512,0 q-16.384,0 -28.16-11.776q-76.8-75.264 -76.8-182.784zM 216.064,263.936q0-16.384 11.776-28.16t 28.16-11.776t 28.16,11.776t 11.776,28.16l0,176.128 q0,16.384 -11.776,28.16t-28.16,11.776t-28.16-11.776t-11.776-28.16l0-176.128 z" />
<glyph unicode="&#x54;" d="M 64,352q0,2.56 0.256,6.912t 2.048,15.36t 5.12,19.456t 10.496,15.36t 16.896,6.912l 87.552,0 q0,2.56 0.256,6.912t 2.048,15.36t 5.12,19.456t 10.496,15.36t 16.896,6.912l 69.632,0 q 15.36,0 24.064-15.872t 9.728-32.256l 1.024-15.872l 87.552,0 q 15.36,0 24.064-16.128t 9.728-32l 1.024-15.872l-384,0 zM 79.872,319.744l 352.256,0 l-2.56-96.768q-11.264-235.52 -54.784-253.44q-3.072-1.536 -6.656-1.536l-224.256,0 q-17.92,0 -31.232,36.352t-19.2,87.808 t-9.216,103.168t-3.84,88.064z" />
<glyph unicode="&#x61;" d="M0,50.432q0,13.824 8.704,27.136t 20.992,18.432l 20.48,8.192q 12.288,5.632 20.992,18.688t 8.704,26.88q0,16.384 0.768,42.496t 8.96,79.872t 22.528,75.776q 13.824,21.504 30.72,38.4t 27.136,23.040l 9.728,6.144q 11.776,6.144 22.272,17.92t 14.080,22.016q 3.072,9.728 14.848,17.152t 25.088,7.424t 25.088-7.424t 14.848-17.152q 3.584-10.24 14.080-22.016t 22.272-17.92q 4.096-2.048 11.008-6.656t 24.832-22.016t 31.744-38.912q 14.336-22.016 22.272-71.68t 8.96-88.064l 1.024-38.4 q0-13.824 8.704-26.88t 20.992-18.688l 20.48-8.192q 12.288-5.12 20.992-18.432t 8.704-27.136q0-13.312 -9.472-23.040t-22.272-9.728l-176.128,0 q0-20.48 -14.080-35.072t-34.048-14.592t-34.048,14.592t-14.080,35.072l-175.616,0 q-13.312,0 -22.784,9.728t-9.472,23.040z" />
<glyph unicode="&#x62;" d="M 128-32l0,512 l 256,0 l0-512 l-128,95.744z" />
<glyph unicode="&#x63;" d="M0,377.6q0,13.312 9.472,22.784t 22.784,9.472l 64,0 q 13.312,0 22.528-9.472t 9.216-22.784l0-31.744 l 384,0 l-64-224.256l-320,0 l-64,224.256l-31.744,0 q-13.312,0 -22.784,9.216t-9.472,22.528zM 128,41.728q0,19.968 14.080,34.048t 34.048,14.080t 34.048-14.080t 14.080-34.048t-14.080-34.048t-34.048-14.080t-34.048,14.080t-14.080,34.048zM 352.256,41.728q0,19.968 13.824,34.048t 33.792,14.080 t 34.048-14.080t 14.080-34.048t-14.080-34.048t-34.048-14.080t-33.792,14.080t-13.824,34.048z" />
<glyph unicode="&#x6d;" d="M0,224l 95.744,95.744l0-47.616 l 112.128,0 l0,111.616 l-47.616,0 l 95.744,96.256l 96.256-96.256l-48.128,0 l0-111.616 l 112.128,0 l0,48.128 l 95.744-96.256l-95.744-96.256l0,48.128 l-112.128,0 l0-111.616 l 48.128,0 l-96.256-96.256l-95.744,96.256l 47.616,0 l0,111.616 l-112.128,0 l0-48.128 z" />
<glyph unicode="&#x70;" d="M0,83.2l0,202.24 q0,26.112 18.688,45.056t 45.312,18.944l 15.872,0 q 26.624,0 47.616,9.216t 24.576,22.528q 3.072,13.312 24.32,22.784t 47.872,9.472l 64,0 q 26.112,0 47.36-9.472t 24.32-22.784q 3.584-13.312 24.576-22.528t 47.616-9.216l 15.872,0 q 26.624,0 45.312-18.944t 18.688-45.056l0-202.24 q0-26.112 -18.688-45.056t-45.312-18.944l-384,0 q-26.624,0 -45.312,18.944t-18.688,45.056zM 128,189.184q0-53.248 37.376-90.624t 90.624-37.376 t 90.624,37.376t 37.376,90.624t-37.376,90.624t-90.624,37.376t-90.624-37.376t-37.376-90.624zM 176.128,189.184q0-32.768 23.552-56.32t 56.32-23.552t 56.32,23.552t 23.552,56.32t-23.552,56.32t-56.32,23.552t-56.32-23.552t-23.552-56.32z" />
<glyph unicode="&#x72;" d="M0,36.608q0-28.16 19.968-48.128t 48.128-19.968t 48.384,19.968t 20.224,48.128t-20.224,48.128t-48.384,19.968t-48.128-19.968t-19.968-48.128zM0,208.128l0,97.792 q 91.648,0 169.472-45.312t 123.136-123.136t 45.312-169.472l-98.304,0 q0,98.816 -70.144,169.984q-71.168,70.144 -169.472,70.144zM0,381.696l0,98.304 q 103.936,0 198.912-40.704t 163.584-109.312t 109.056-163.328t 40.448-198.656l-98.304,0 q0,83.968 -32.768,160.768 t-88.32,132.096t-132.096,88.064t-160.512,32.768z" />
<glyph unicode="&#x73;" d="M 58.88,224q0,34.816 24.32,59.136t 59.136,24.32q 17.92,0 33.792-7.168l 65.536,65.024q-6.656,15.872 -6.656,31.232q0,34.304 24.32,58.88t 59.136,24.576t 59.136-24.576t 24.32-58.88t-24.32-58.624t-59.136-24.32q-18.944,0 -36.864,8.192l-63.488-63.488q 7.168-15.872 7.168-34.304q0-17.92 -7.168-33.792l 64-64q 17.408,8.192 36.352,8.192q 34.816,0 59.136-24.32t 24.32-58.624t-24.32-58.88 t-59.136-24.576t-59.136,24.576t-24.32,58.88q0,15.872 6.656,31.744l-65.536,65.024q-15.872-7.168 -33.792-7.168q-34.816,0 -59.136,24.32t-24.32,58.624z" />
<glyph unicode="&#x74;" d="M0,298.752l0,181.248 l 181.248,0 l 330.752-330.752l-181.248-181.248zM 64,367.872q0-19.968 14.080-34.048t 34.048-14.080t 34.048,14.080t 14.080,34.048t-14.080,34.048t-34.048,14.080t-34.048-14.080t-14.080-34.048z" />
<glyph unicode="&#x75;" d="M0-6.4l 512,0 l0,43.008 q-1.536,14.336 -5.632,26.624q-0.512,2.048 -1.536,5.12q-3.584,8.704 -10.752,15.872q-8.704,9.216 -23.552,14.336q-2.56,1.024 -8.704,3.328t-9.216,3.328t-4.608,2.048q-17.408,7.168 -19.456,8.192q-9.216,3.584 -28.672,11.776q-10.24,4.608 -29.696,12.8q-3.584,1.024 -10.24,3.584t-9.728,3.584q-1.024,0.512 -8.704,5.632q-6.656,5.12 -19.456,16.896q0,3.072 -0.512,3.584q-1.024,0.512 -3.072,4.608t-2.56,4.096q0,13.824 4.096,20.48q 0.512,0.512 2.56,8.192q 0.512,1.536 3.072,14.336q 2.048,11.264 4.096,15.872q 1.536,3.072 5.888,7.936 t 5.888,8.448q 3.584,7.168 6.656,20.48q 3.072,12.288 3.072,22.528q0,5.632 -1.024,10.752q-1.536,7.68 -2.048,13.312l0,6.656 q0,4.096 0.512,17.408q0,6.656 0.256,11.008t-0.256,6.4q-1.536,18.432 -5.12,30.72q-5.632,15.872 -10.752,21.504q-1.024,1.536 -5.888,4.352t-5.376,3.84l-3.584,3.584q-0.512,0.512 -1.536,1.792t-2.048,2.304t-1.536,1.024q-10.24,8.704 -26.624,14.336q-13.824,3.584 -27.648,3.584l-9.216-0.512q-18.432-2.048 -36.352-9.216q-16.384-6.144 -28.672-19.968q-11.776-14.336 -17.408-38.4 q-3.584-15.36 -3.584-34.304q0-10.24 1.024-22.016q 0.512-5.12 -0.768-12.8t-0.768-11.264q 1.024-12.8 3.072-24.576q 4.608-20.992 11.776-31.744q 1.024-1.024 3.84-3.328t 3.328-2.816l 3.072-15.36q 2.048-6.656 2.56-11.264q 0.512-3.584 1.536-8.704l0-4.096 q 2.56-6.656 6.144-25.088l-3.584-5.12q-1.536-0.512 -2.048-0.512q-3.072-2.048 -8.96-7.68t-8.448-7.68q-7.68-6.656 -13.312-9.216q-4.608-2.048 -13.824-5.12q-3.584-2.048 -7.168-2.56q-19.456-8.704 -24.064-10.24 q-2.56-1.024 -30.208-12.8q-4.608-2.048 -12.544-5.376t-10.496-4.352q-0.512-0.512 -1.28-0.512t-1.28-0.512q-4.096-2.048 -18.944-7.168q-13.824-4.608 -23.040-13.824q-7.68-7.68 -12.288-17.408q-0.512-0.512 -0.768-1.792t-0.256-1.792q-3.584-13.824 -5.12-27.136q-0.512-6.656 -0.512-43.008z" />
<glyph unicode="&#x7a;" d="M0,274.944q0,84.736 59.904,145.152q 60.416,59.904 145.152,59.904t 145.152-59.904q 52.224-51.712 59.392-125.44q 1.024-10.752 0.512-21.504q0-60.928 -33.792-111.104l 135.68-136.192l-57.856-57.856l-136.192,135.68q-50.176-33.792 -111.104-33.792q-11.264-0.512 -21.504,0.512q-73.728,7.168 -125.44,59.392q-59.904,60.416 -59.904,145.152zM 118.272,188.16q 35.84-35.84 86.784-35.84t 86.784,35.84t 35.84,86.784t-35.84,86.784 q-35.84,36.352 -87.040,36.352t-87.040-36.352q-35.84-35.84 -35.84-86.016q0-51.2 36.352-87.552z" />
<glyph unicode="&#x2190;" d="M 25.6,224l 416.256-256l0,512 z" />
<glyph unicode="&#x2191;" d="M0,19.2l 512,0 l-256,416.256z" />
<glyph unicode="&#x2192;" d="M 70.144-32l 416.256,256l-416.256,256l0-512 z" />
<glyph unicode="&#x2193;" d="M0,435.456l 256-416.256l 256,416.256l-512,0 z" />
<glyph unicode="&#x21a9;" d="M 25.6,288l 224.256,192l0-112.128 q 28.16-2.56 56.32-8.704t 57.344-16.64t 53.248-24.064t 41.472-33.024t 24.832-42.496t 0.512-52.48t-28.672-62.464t-65.792-74.24t-107.52-85.76q 31.232,30.72 53.248,57.6t 37.12,54.016t 15.872,49.664t-11.264,41.728t-44.032,32.768t-82.688,20.224l0-112.128 z" />
<glyph unicode="&#x2302;" d="M0,224l 256,256l 256-256l-64,0 l0-256 l-128,0 l0,192 l-128,0 l0-192 l-128,0 l0,256 l-64,0 z" />
<glyph unicode="&#x231a;" d="M0,224q0,69.632 34.304,128.512t 93.184,93.184t 128.512,34.304t 128.512-34.304t 93.184-93.184t 34.304-128.512t-34.304-128.512t-93.184-93.184t-128.512-34.304t-128.512,34.304t-93.184,93.184t-34.304,128.512zM 64,224q0-79.36 56.32-135.68t 135.68-56.32t 135.68,56.32t 56.32,135.68t-56.32,135.68t-135.68,56.32t-135.68-56.32t-56.32-135.68zM 224.256,220.928l0,2.56 l0,112.128 q0,13.312 9.216,22.528t 22.528,9.216t 22.784-9.472 t 9.472-22.272l0-91.648 l 82.944-38.912q 11.776-5.632 16.384-18.176t-1.024-24.32t-18.176-16.384t-24.32,1.024l-101.888,47.104q-1.024,1.024 -2.048,1.536q-0.512,0.512 -1.28,1.024t-1.28,0.512q-1.536,1.024 -2.56,2.56q-1.024,0.512 -2.048,1.536q-1.024,0.512 -2.048,2.56l-2.048,2.048q-1.024,2.048 -1.024,3.072q-0.512,0.512 -1.024,1.28t-0.512,1.28t-0.512,1.536t-0.512,1.536t-0.256,1.536t-0.256,1.536q-0.512,1.024 -0.512,3.072z" />
<glyph unicode="&#x2691;" d="M0,407.808l 51.712,21.504l 183.296-440.32l-51.2-20.992zM 76.8,436.992q 2.56,3.584 7.68,9.216t 20.736,16.64t 31.744,15.36t 39.424-2.048t 44.8-28.416q 30.208-30.208 60.16-41.984t 50.944-7.424t 37.632,13.312t 24.832,18.176l 8.192,9.728l 109.056-259.072q-2.56-3.584 -7.68-9.216t-20.736-16.64t-31.744-15.36t-39.424,2.048t-44.8,28.416q-27.648,27.648 -52.992,43.008t-43.008,17.92t-32.768-1.024t-24.576-12.288t-16.128-17.408 t-9.728-15.36l-2.56-6.656z" />
<glyph unicode="&#x2699;" d="M0,193.792l0,58.368 l 70.656,25.088l 16.384,39.936l-29.696,58.88l-3.584,7.68l 40.96,40.96l 67.584-31.744l 40.448,16.384l 19.968,62.464l 3.072,8.192l 57.856,0 l 25.6-70.656l 39.936-16.384l 58.88,29.696l 7.68,3.584l 40.96-40.96l-31.744-67.584l 16.384-40.448l 62.464-19.968l 8.192-3.072l0-58.368 l-70.656-25.088l-16.384-39.936l 29.696-58.88l 4.096-7.68l-41.472-40.96l-67.584,31.744l-40.448-16.384l-19.968-62.464l-3.072-8.192l-58.368,0 l-25.088,70.656l-39.936,16.384l-58.88-29.696l-7.68-4.096 l-40.96,41.472l 31.744,67.584l-16.384,40.448l-62.464,19.968zM 174.592,224q0-33.792 23.808-57.6t 57.6-23.808t 57.6,23.808t 23.808,57.6t-23.808,57.6t-57.6,23.808t-57.6-23.808t-23.808-57.6z" />
<glyph unicode="&#x26a0;" d="M0,19.2l 256,448l 256-448l-512,0 zM 224.256,99.072q0-13.312 9.216-22.528t 22.528-9.216t 22.784,9.216t 9.472,22.528t-9.472,22.784t-22.784,9.472t-22.528-9.472t-9.216-22.784zM 224.256,199.424q0-22.528 15.872-32t 32,0t 16.128,32l0,75.776 q0,22.528 -9.984,35.584t-22.016,13.056t-22.016-13.056t-9.984-35.584l0-75.776 z" />
<glyph unicode="&#x2709;" d="M0,19.2l 512,0 l0,320 l-256-256l-256,256l0-320 zM0,403.2l 256-256l 256,256l-512,0 z" />
<glyph unicode="&#x270e;" d="M0-32l 52.736,131.072l 78.336-78.336zM 81.408,128.256l 78.848-78.848l 254.464,254.464l-78.848,78.848zM 367.616,414.464l 78.848-78.848l 65.536,65.536l-78.848,78.848z" />
<glyph unicode="&#x2714;" d="M0,186.112l 90.624,90.624l 101.888-101.888l 228.864,228.864l 90.624-90.624l-319.488-319.488z" />
<glyph unicode="&#x2764;" d="M0,300.8q0,57.856 37.12,96.256t 90.88,38.4q 33.28,0 64-36.352t 47.36-84.48t 16.64-88.064q0,39.936 16.64,88.064t 47.36,84.48t 64,36.352q 53.76,0 90.88-38.4t 37.12-96.256q0-110.592 -136.704-211.456q-60.416-44.544 -118.784-70.144l-0.512,0 q-5.12,2.56 -14.336,6.912t-35.84,19.2t-50.944,31.232t-53.76,41.984t-50.688,51.968t-35.84,60.928t-14.592,69.376z" />
<glyph unicode="&#x27f2;" d="M0,224l 64,0 q0-79.36 56.32-135.68t 135.68-56.32q 41.984,0 79.104,17.152t 64.256,47.36l-63.488,63.488l 160.256,0 l0-160.256 l-51.712,51.712q-35.84-39.424 -84.736-61.44t-103.68-22.016q-69.632,0 -128.512,34.304t-93.184,93.184t-34.304,128.512zM 15.872,288l0,159.744 l 51.712-51.2q 35.84,39.424 84.736,61.44t 103.68,22.016q 69.632,0 128.512-34.304t 93.184-93.184t 34.304-128.512l-64,0 q0,79.36 -56.32,135.68 t-135.68,56.32q-41.984,0 -79.104-17.152t-64.256-47.36l 63.488-63.488l-160.256,0 z" />
<glyph unicode="&#x2b07;" d="M 112.128,354.56q0,51.712 42.24,88.576t 101.632,36.864q 59.904,0 102.144-36.864t 42.24-88.576q0-59.904 -126.976-347.648l-17.408-38.912q-15.872,35.328 -39.936,90.112t-64,160.256t-39.936,136.192zM 192,356.608q0-26.624 18.688-45.312t 45.312-18.688t 45.312,18.688t 18.688,45.312t-18.688,45.312t-45.312,18.688t-45.312-18.688t-18.688-45.312z" />
<glyph unicode="&#x66;" d="M0-32l0,192 l 61.952-61.952l 96.256,96.256l 68.096-68.096l-96.256-96.256l 61.952-61.952l-192,0 zM0,288l0,192 l 192,0 l-61.952-61.952l 96.256-96.256l-68.096-68.096l-96.256,96.256zM 285.696,126.208l 68.096,68.096l 96.256-96.256l 61.952,61.952l0-192 l-192,0 l 61.952,61.952zM 285.696,321.792l 96.256,96.256l-61.952,61.952l 192,0 l0-192 l-61.952,61.952l-96.256-96.256z" />
<glyph unicode="&#x67;" d="M0-32l 224.256,0 l0,223.744 l-224.256,0 l0-223.744 zM0,255.744l 224.256,0 l0,224.256 l-224.256,0 l0-224.256 zM 288.256-32l 223.744,0 l0,223.744 l-223.744,0 l0-223.744 zM 288.256,255.744l 223.744,0 l0,224.256 l-223.744,0 l0-224.256 z" />
<glyph unicode="&#x229d;" d="M0,224q0,69.632 34.304,128.512t 93.184,93.184t 128.512,34.304t 128.512-34.304t 93.184-93.184t 34.304-128.512t-34.304-128.512t-93.184-93.184t-128.512-34.304t-128.512,34.304t-93.184,93.184t-34.304,128.512zM 96.256,191.744l 320,0 l0,64 l-320,0 l0-64 z" />
<glyph unicode="&#x2297;" d="M0,224q0,69.632 34.304,128.512t 93.184,93.184t 128.512,34.304t 128.512-34.304t 93.184-93.184t 34.304-128.512t-34.304-128.512t-93.184-93.184t-128.512-34.304t-128.512,34.304t-93.184,93.184t-34.304,128.512zM 120.32,133.376l 45.056-45.056l 90.624,90.624l 90.624-90.624l 45.056,45.056l-90.624,90.624l 90.624,90.624l-45.056,45.056l-90.624-90.624l-90.624,90.624l-45.056-45.056l 90.624-90.624z" />
<glyph unicode="&#x64;" d="M0,224q0,69.632 34.304,128.512t 93.184,93.184t 128.512,34.304t 128.512-34.304t 93.184-93.184t 34.304-128.512t-34.304-128.512t-93.184-93.184t-128.512-34.304t-128.512,34.304t-93.184,93.184t-34.304,128.512zM 64,224q0-61.44 35.84-111.104l 267.264,267.264q-49.664,35.84 -111.104,35.84q-79.36,0 -135.68-56.32t-56.32-135.68zM 144.896,67.84q 49.664-35.84 111.104-35.84q 79.36,0 135.68,56.32t 56.32,135.68q0,61.44 -35.84,111.104z" />
<glyph unicode="&#x65;" d="M0,224q0-13.312 9.472-22.784t 22.784-9.472l 79.872,0 q 12.8,0 22.272,9.472t 9.472,22.784t-9.472,22.528t-22.272,9.216l-79.872,0 q-13.312,0 -22.784-9.216t-9.472-22.528zM 32.256,7.936l0,152.064 l 79.872,0 l0-152.064 q0-16.384 -11.776-28.16t-28.16-11.776t-28.16,11.776t-11.776,28.16zM 32.256,288l0,152.064 q0,16.384 11.776,28.16t 28.16,11.776t 28.16-11.776t 11.776-28.16l0-152.064 l-79.872,0 zM 192,352q0-13.312 9.472-22.784 t 22.784-9.472l 79.872,0 q 12.8,0 22.272,9.472t 9.472,22.784t-9.216,22.528t-22.528,9.216l-79.872,0 q-13.312,0 -22.784-9.216t-9.472-22.528zM 224.256,7.936l0,280.064 l 79.872,0 l0-280.064 q0-16.384 -11.776-28.16t-28.16-11.776t-28.16,11.776t-11.776,28.16zM 224.256,416l0,24.064 q0,16.384 11.776,28.16t 28.16,11.776t 28.16-11.776t 11.776-28.16l0-24.064 l-79.872,0 zM 368.128,111.872q0-12.8 9.472-22.272t 22.272-9.472l 80.384,0 q 13.312,0 22.528,9.472 t 9.216,22.272q0,13.312 -9.216,22.784t-22.528,9.472l-80.384,0 q-13.312,0 -22.528-9.472t-9.216-22.784zM 399.872,7.936l0,39.936 l 80.384,0 l0-39.936 q0-16.384 -12.032-28.16t-28.416-11.776t-28.16,11.776t-11.776,28.16zM 399.872,175.872l0,264.192 q0,16.384 11.776,28.16t 28.16,11.776t 28.416-11.776t 12.032-28.16l0-264.192 l-80.384,0 z" />
<glyph unicode="&#x69;" d="M 118.272,189.696q 6.656-6.656 12.288-6.144q 5.632,1.024 28.16,31.232q 22.528,30.72 31.744,32.256q 4.096,0 6.144-2.048q 2.048-2.56 3.072-7.68q 0.512-4.608 -1.024-13.312q-1.024-4.096 -5.632-20.48l-50.688-146.432q-2.048-7.168 -5.12-21.504q-1.536-7.168 -1.536-14.336q0-4.096 0.512-8.192q 2.048-18.944 17.408-32.768q 12.288-10.752 33.792-10.752q 5.12,0 10.752,0.512q 43.52,5.632 90.624,52.736q 48.128,47.616 47.104,59.392q-1.536,4.096 -7.168,9.216q-6.144,6.656 -11.264,6.144q-5.632,0 -23.552-25.088 q-18.432-24.576 -33.792-26.624q-1.024,0 -4.096,1.024q-2.56,1.024 -2.56,4.608q-0.512,3.072 1.024,13.312q 3.584,14.336 6.656,25.088l 39.424,123.392q 5.632,13.824 6.144,26.112q 0.512,5.12 0.512,10.24q0,7.168 -1.024,12.288q-3.072,25.6 -20.992,41.472q-14.848,12.8 -37.888,12.8q-5.12,0 -11.264-0.512q-20.48-2.56 -43.52-19.456q-24.064-16.384 -40.448-35.328q-17.92-19.456 -29.696-37.376q-10.752-15.36 -10.752-23.040q0-2.56 6.656-10.752zM 220.16,409.344q 3.072-25.6 24.576-42.496q 17.92-14.336 39.424-14.336 q 4.096,0 7.68,0.512q 26.112,3.072 43.008,24.064q 13.824,17.92 13.824,40.448q0,3.584 -0.512,7.168q-3.072,25.088 -24.064,42.496q-17.92,14.336 -39.424,14.336q-4.096,0 -8.192-0.512q-25.6-3.072 -42.496-24.064q-14.336-18.432 -14.336-39.936q0-3.584 0.512-7.68z" />
<glyph unicode="&#x6c;" d="M0-6.4l 512,0 l0,79.872 l-512,0 l0-79.872 zM0,121.6l 512,0 l0,79.872 l-512,0 l0-79.872 zM0,249.6l 512,0 l0,79.872 l-512,0 l0-79.872 zM0,377.6l 512,0 l0,79.872 l-512,0 l0-79.872 z" />
<glyph unicode="&#x25b6;" d="M0,224q0,69.632 34.304,128.512t 93.184,93.184t 128.512,34.304t 128.512-34.304t 93.184-93.184t 34.304-128.512t-34.304-128.512t-93.184-93.184t-128.512-34.304t-128.512,34.304t-93.184,93.184t-34.304,128.512zM 176.128,80.128l 223.744,143.872l-223.744,143.872l0-287.744 z" />
<glyph unicode="&#x2601;" d="M0,115.456q0,31.744 19.456,57.344t 49.152,34.304q-4.608,17.92 -4.608,36.352q0,59.392 42.24,101.632t 101.632,42.24q 51.712,0 91.136-32.256t 49.664-81.92q 8.192,2.048 19.456,2.048q 39.424,0 67.584-28.16t 28.16-67.584q0-17.408 -5.632-33.28q 23.040-3.584 38.4-21.248t 15.36-41.728q0-26.624 -18.688-45.312t-45.312-18.688l-351.744,0 q-39.936,0 -68.096,28.416t-28.16,67.84z" />
<glyph unicode="&#x2605;" d="M0,269.056l 158.208-114.688l-60.416-186.368l 158.208,115.2l 158.208-115.2l-60.416,186.368l 158.208,114.688l-195.584,0 l-60.416,185.856l-60.416-185.856l-195.584,0 z" />
<glyph unicode="&#x266b;" d="M 25.088,30.976q-5.12,29.184 16.64,54.272t 58.112,31.744q 27.648,4.608 52.224-4.096l0,341.504 l 320,32.256l0-399.872 q 1.024-27.136 -20.48-49.664t-55.296-28.672q-35.84-6.656 -65.024,9.472t-34.304,45.312t 16.896,54.272t 57.856,31.232q 26.112,5.12 52.224-3.584l0,213.504 l-223.744-32.256l0-271.872 l-0.512,0 q 1.024-27.136 -20.224-49.664t-55.040-28.672q-36.352-6.144 -65.28,9.728t-34.048,45.056z" />
<glyph unicode="&#xd7;" d="M 350.5,224l 151.5-152q 10-10 10-23.75t-10-23.25l-47-47q-9.5-10 -23.5-10t-23.5,10l-152,151.5l-152-151.5q-9.5-10 -23.5-10t-23.5,10l-47,47q-10,9.5 -10,23.25t 10,23.75l 151.5,152l-151.5,151.5q-10,10 -10,23.75t 10,23.75l 47,47q 9.5,9.5 23.5,9.5t 23.5-9.5l 152-152l 152,152q 9.5,9.5 23.5,9.5t 23.5-9.5
l 47-47q 10-10 10-23.75t-10-23.75z" data-tags="multiply" />
<glyph unicode="&#x20;" horiz-adv-x="256" />
</font>
</defs>
</svg>
